<svg width="540" height="360" viewBox="0 0 540 360" xmlns="http://www.w3.org/2000/svg" role="img" aria-labelledby="title">
  <title>Campus Kubernetes Plattform</title>
  <defs>
    <linearGradient id="campusBg" x1="0%" y1="0%" x2="100%" y2="100%">
      <stop offset="0%" stop-color="#2D3142" />
      <stop offset="100%" stop-color="#4F5D75" />
    </linearGradient>
    <linearGradient id="nodeGradient" x1="0%" y1="0%" x2="100%" y2="100%">
      <stop offset="0%" stop-color="#EF8354" />
      <stop offset="100%" stop-color="#F9A03F" />
    </linearGradient>
  </defs>
  <rect width="540" height="360" rx="24" fill="url(#campusBg)" />
  <g stroke="#89A1EF" stroke-width="2" opacity="0.55">
    <path d="M120 90l80 60-80 60-80-60z" fill="none" />
    <path d="M420 90l80 60-80 60-80-60z" fill="none" />
    <path d="M260 40l80 60-80 60-80-60z" fill="none" />
  </g>
  <g transform="translate(200 130)">
    <rect width="140" height="140" rx="16" fill="#89CFF0" opacity="0.2" />
    <g transform="translate(20 20)" fill="url(#nodeGradient)">
      <rect width="36" height="36" rx="8" />
      <rect x="44" width="36" height="36" rx="8" opacity="0.85" />
      <rect x="88" width="36" height="36" rx="8" opacity="0.7" />
      <rect y="44" width="36" height="36" rx="8" opacity="0.85" />
      <rect x="44" y="44" width="36" height="36" rx="8" />
      <rect x="88" y="44" width="36" height="36" rx="8" opacity="0.85" />
      <rect y="88" width="36" height="36" rx="8" opacity="0.7" />
      <rect x="44" y="88" width="36" height="36" rx="8" opacity="0.85" />
      <rect x="88" y="88" width="36" height="36" rx="8" />
    </g>
  </g>
  <text x="270" y="320" text-anchor="middle" font-family="'Inter', 'Helvetica Neue', Arial" font-size="22" fill="#F0F4F8">Self-Service. GitOps. Observability.</text>
</svg>
